<?xml version="1.0" encoding="utf-8"?>
<!--
  ~ Copyright 2017 Zextras Srl
  ~
  ~ Licensed under the Apache License, Version 2.0 (the "License");
  ~ you may not use this file except in compliance with the License.
  ~ You may obtain a copy of the License at
  ~
  ~     http://www.apache.org/licenses/LICENSE-2.0
  ~
  ~ Unless required by applicable law or agreed to in writing, software
  ~ distributed under the License is distributed on an "AS IS" BASIS,
  ~ WITHOUT WARRANTIES OR CONDITIONS OF ANY KIND, either express or implied.
  ~ See the License for the specific language governing permissions and
  ~ limitations under the License.
  -->

<!-- Generator: Adobe Illustrator 21.1.0, SVG Export Plug-In . SVG Version: 6.00 Build 0)  -->
<svg version="1.0" id="Livello_1" xmlns="http://www.w3.org/2000/svg" xmlns:xlink="http://www.w3.org/1999/xlink" x="0px" y="0px"
	 width="32px" height="32px" viewBox="0 0 32 32" enable-background="new 0 0 32 32" xml:space="preserve">
<path d="M0,0v32h32V0H0z M23.8,29H8.5C5.9,29,5,27.6,5,26.3c0-0.8,0.2-1.4,0.9-2.3l12-15.8H8.8
	c-1.9,0-3.1-1.1-3.1-2.6C5.6,4.1,6.9,3,8.8,3h14.5c2.1,0,3.3,1.2,3.3,2.4c0,1-0.4,1.7-1.1,2.6l-12,15.8h10.5c1.9,0,3.2,1.1,3.2,2.6
	C27,27.9,25.7,29,23.8,29z"/>
</svg>
