<?xml version="1.0" encoding="utf-8"?>
<!-- Generator: Adobe Illustrator 21.0.0, SVG Export Plug-In . SVG Version: 6.00 Build 0)  -->
<svg version="1.1" baseProfile="basic" id="Livello_1"
	 xmlns="http://www.w3.org/2000/svg" xmlns:xlink="http://www.w3.org/1999/xlink" x="0px" y="0px" viewBox="0 0 32 32"
	 xml:space="preserve">
<style type="text/css">
	.st0{fill:#DC911B;}
	.st1{fill:#F15A24;}
	.st2{fill:#29ABE2;}
	.st3{fill:#0071BC;}
	.st4{fill:#FFFFFF;}
</style>
<g>
	<g>
		<path class="st0" d="M4,31c-1.7,0-3-1.3-3-3v-7.1h30V28c0,1.7-1.3,3-3,3H4z"/>
		<path class="st1" d="M30,21.9V28c0,1.1-0.9,2-2,2H4c-1.1,0-2-0.9-2-2v-6.1H30 M32,19.9H0V28c0,2.2,1.8,4,4,4h24c2.2,0,4-1.8,4-4
			V19.9L32,19.9z"/>
	</g>
	<g>
		<path class="st2" d="M2,21c-0.3,0-0.7-0.1-0.9-0.4c-0.1-0.2-0.2-0.4-0.2-0.8l4.1-18C5.3,1.3,5.7,1,6.1,1h19.7c0.4,0,0.9,0.3,1,0.8
			l4.1,18c0,0.3-0.1,0.6-0.3,0.8C30.6,20.8,30.4,21,30,21H2z"/>
		<path class="st3" d="M25.9,2C25.9,2,25.9,2,25.9,2L30,19.9c0,0,0,0.1,0,0.1H2c0,0,0,0,0,0L6.1,2.1C6.1,2,6.1,2,6.1,2L25.9,2
			C25.9,2,25.9,2,25.9,2C25.9,2,25.9,2,25.9,2 M25.9,0H6.1c-0.9,0-1.7,0.6-2,1.6l-4.1,18C-0.2,20.9,0.8,22,2,22H30
			c1.3,0,2.2-1.2,2-2.4l-4.1-18C27.7,0.6,26.8,0,25.9,0L25.9,0z"/>
	</g>
	<circle class="st4" cx="26" cy="26" r="2"/>
	<path class="st4" d="M16.6,4H9.2L8.9,6.1h7.7c2.6,0,5,1.7,5.2,4c0.2,2.5-2.1,4.7-5.2,4.7h-4.3L20,8.3c0,0,0,0,0,0h-4.2l-8.2,6.5
		l0,0L7,18h9.6c5.3,0,9-3.8,8.3-7.9C24.4,6.5,20.6,4,16.6,4z"/>
</g>
</svg>
