<?xml version="1.0" encoding="utf-8"?>
<!--
  ~ Zimbra Drive App
  ~ Copyright (C) 2017  Zextras Srl
  ~
  ~ This program is free software: you can redistribute it and/or modify
  ~ it under the terms of the GNU Affero General Public License as
  ~ published by the Free Software Foundation, either version 3 of the
  ~ License, or (at your option) any later version.
  ~
  ~ This program is distributed in the hope that it will be useful,
  ~ but WITHOUT ANY WARRANTY; without even the implied warranty of
  ~ MERCHANTABILITY or FITNESS FOR A PARTICULAR PURPOSE.  See the
  ~ GNU Affero General Public License for more details.
  ~
  ~ You should have received a copy of the GNU Affero General Public License
  ~ along with this program.  If not, see <https://www.gnu.org/licenses/>.
  ~ If you require any further information, feel free to contact legal@zextras.com.
  -->

<!-- Generator: Adobe Illustrator 21.1.0, SVG Export Plug-In . SVG Version: 6.00 Build 0)  -->
<svg version="1.0" id="Livello_1" xmlns="http://www.w3.org/2000/svg" xmlns:xlink="http://www.w3.org/1999/xlink" x="0px" y="0px"
	 width="32px" height="32px" viewBox="0 0 32 32" enable-background="new 0 0 32 32" xml:space="preserve">
<path fill="#FFFFFF" d="M0,0v32h32V0H0z M23.8,29H8.5C5.9,29,5,27.6,5,26.3c0-0.8,0.2-1.4,0.9-2.3l12-15.8H8.8
	c-1.9,0-3.1-1.1-3.1-2.6C5.6,4.1,6.9,3,8.8,3h14.5c2.1,0,3.3,1.2,3.3,2.4c0,1-0.4,1.7-1.1,2.6l-12,15.8h10.5c1.9,0,3.2,1.1,3.2,2.6
	C27,27.9,25.7,29,23.8,29z"/>
</svg>
